<svg xmlns="http://www.w3.org/2000/svg" viewBox="0 0 624 624">
    <g id="arrow-layer-1">
        <path d="M312.5.5h0c171.6,0,312,140.4,312,312h0c0,171.6-140.4,312-312,312h0c-171.6,0-312-140.4-312-312h0C.5,140.9,140.9.5,312.5.5Z"/>
    </g>
    <g id="arrow-layer-2">
        <path d="M481.46,327.86a15.36,15.36,0,1,0,0-30.72H143.54a15.36,15.36,0,1,0,0,30.72Z"/>
        <path d="M243.05,433.73A15.36,15.36,0,0,0,264.77,412L165.26,312.5,264.77,213a15.36,15.36,0,1,0-21.72-21.72L132.77,301.55l-.09.09a15.35,15.35,0,0,0,0,21.72h0L243.05,433.73Z"/>
    </g>
</svg>
