<svg xmlns="http://www.w3.org/2000/svg" viewBox="0 0 32 32" xml:space="preserve" class="">
    <g>
        <path d="m30 9c0 2.137-.832 4.146-2.343 5.657l-14.41 14.581c-1.172 1.172-2.711 1.758-4.249 1.758-1.536 0-3.072-.585-4.241-1.754-2.339-2.34-2.339-6.146 0-8.485l10.41-10.351c1.563-1.553 4.047-1.604 5.54-.113.729.729 1.113 1.713 1.082 2.772-.031 1.036-.458 2.018-1.203 2.763l-9.879 9.879c-.391.391-1.023.391-1.414 0s-.391-1.023 0-1.414l9.879-9.879c.383-.383.603-.883.618-1.408.015-.502-.162-.964-.497-1.299-.715-.712-1.933-.661-2.715.117l-10.409 10.349c-1.557 1.558-1.557 4.096.002 5.655 1.56 1.559 4.097 1.559 5.657 0l14.41-14.581c1.138-1.138 1.762-2.644 1.762-4.247s-.624-3.109-1.757-4.242c-1.134-1.134-2.64-1.758-4.243-1.758s-3.109.624-4.243 1.758l-14.052 13.952c-.393.389-1.025.387-1.414-.006-.389-.392-.387-1.024.005-1.414l14.05-13.949c1.508-1.509 3.517-2.341 5.654-2.341s4.146.832 5.657 2.344c1.511 1.51 2.343 3.519 2.343 5.656z" fill="#000000" class="">
        </path>
    </g>
</svg>
