<svg width="16" height="16" viewBox="0 0 16 16" fill="none" xmlns="http://www.w3.org/2000/svg">
<g clip-path="url(#clip0_10_2815)">
<path d="M8.66732 2.66667C8.66732 2.84348 8.73756 3.01305 8.86258 3.13807C8.9876 3.2631 9.15717 3.33333 9.33398 3.33333H11.978C11.9289 2.90045 11.7389 2.49569 11.4373 2.18133L9.91465 0.608667C9.58155 0.271032 9.13966 0.0622496 8.66732 0.0193333V2.66667ZM7.33398 2.66667V0H4.66732C3.78359 0.00105857 2.93636 0.352588 2.31146 0.97748C1.68657 1.60237 1.33504 2.4496 1.33398 3.33333V10C1.33504 10.8837 1.68657 11.731 2.31146 12.3559C2.93636 12.9807 3.78359 13.3323 4.66732 13.3333H8.66732C9.55105 13.3323 10.3983 12.9807 11.0232 12.3559C11.6481 11.731 11.9996 10.8837 12.0007 10V4.66667H9.33398C8.80355 4.66667 8.29484 4.45595 7.91977 4.08088C7.5447 3.70581 7.33398 3.1971 7.33398 2.66667ZM11.334 16H5.33398C5.15717 16 4.9876 15.9298 4.86258 15.8047C4.73756 15.6797 4.66732 15.5101 4.66732 15.3333C4.66732 15.1565 4.73756 14.987 4.86258 14.8619C4.9876 14.7369 5.15717 14.6667 5.33398 14.6667H11.334C11.8644 14.6667 12.3731 14.456 12.7482 14.0809C13.1233 13.7058 13.334 13.1971 13.334 12.6667V5.33333C13.334 5.15652 13.4042 4.98695 13.5292 4.86193C13.6543 4.7369 13.8238 4.66667 14.0007 4.66667C14.1775 4.66667 14.347 4.7369 14.4721 4.86193C14.5971 4.98695 14.6673 5.15652 14.6673 5.33333V12.6667C14.6663 13.5504 14.3147 14.3976 13.6898 15.0225C13.0649 15.6474 12.2177 15.9989 11.334 16Z" fill="black"/>
</g>
<defs>
<clipPath id="clip0_10_2815">
<rect width="16" height="16" fill="white"/>
</clipPath>
</defs>
</svg>
