<svg width="16" height="16" viewBox="0 0 16 16" fill="none" xmlns="http://www.w3.org/2000/svg">
<g clip-path="url(#clip0_10_2809)">
<path d="M9.41392 8.00047L15.707 1.70807C16.0976 1.31743 16.0976 0.684077 15.707 0.293468C15.3164 -0.0971718 14.683 -0.0971718 14.2924 0.293468L7.99998 6.58652L1.70758 0.293468C1.31694 -0.0971718 0.683589 -0.0971718 0.29298 0.293468C-0.0976288 0.684109 -0.09766 1.31746 0.29298 1.70807L6.58603 8.00047L0.29298 14.2929C-0.09766 14.6835 -0.09766 15.3169 0.29298 15.7075C0.68362 16.0981 1.31697 16.0981 1.70758 15.7075L7.99998 9.41441L14.2924 15.7075C14.683 16.0981 15.3164 16.0981 15.707 15.7075C16.0976 15.3169 16.0976 14.6835 15.707 14.2929L9.41392 8.00047Z" fill="black"/>
</g>
<defs>
<clipPath id="clip0_10_2809">
<rect width="16" height="16" fill="white"/>
</clipPath>
</defs>
</svg>
