<svg width="12" height="12" viewBox="0 0 12 12" fill="none" xmlns="http://www.w3.org/2000/svg">
<path fill-rule="evenodd" clip-rule="evenodd" d="M0.294779 0.294291C0.500318 0.0887519 0.833563 0.0887519 1.0391 0.294291L6.00027 5.25546L10.9614 0.294291C11.167 0.0887519 11.5002 0.0887519 11.7058 0.294291C11.9113 0.49983 11.9113 0.833075 11.7058 1.03861L6.7446 5.99979L11.7058 10.961C11.9113 11.1665 11.9113 11.4997 11.7058 11.7053C11.5002 11.9108 11.167 11.9108 10.9614 11.7053L6.00027 6.74411L1.0391 11.7053C0.833563 11.9108 0.500318 11.9108 0.294779 11.7053C0.0892402 11.4997 0.0892402 11.1665 0.294779 10.961L5.25595 5.99979L0.294779 1.03861C0.0892402 0.833075 0.0892402 0.49983 0.294779 0.294291Z" fill="black"/>
</svg>
