<svg width="16" height="16" viewBox="0 0 16 16" fill="none" xmlns="http://www.w3.org/2000/svg">
<path d="M7.99675 0C6.22923 0.00194106 4.53467 0.704943 3.28484 1.95477C2.03502 3.20459 1.33202 4.89915 1.33008 6.66667C1.33008 10.188 6.93008 15.022 7.56608 15.562L7.99675 15.926L8.42741 15.562C9.06341 15.022 14.6634 10.188 14.6634 6.66667C14.6615 4.89915 13.9585 3.20459 12.7086 1.95477C11.4588 0.704943 9.76426 0.00194106 7.99675 0V0ZM7.99675 10C7.33747 10 6.69301 9.8045 6.14484 9.43823C5.59668 9.07196 5.16944 8.55136 4.91715 7.94228C4.66485 7.33319 4.59884 6.66297 4.72746 6.01637C4.85608 5.36976 5.17355 4.77582 5.63972 4.30964C6.1059 3.84347 6.69984 3.526 7.34644 3.39738C7.99305 3.26877 8.66327 3.33478 9.27236 3.58707C9.88144 3.83936 10.402 4.2666 10.7683 4.81477C11.1346 5.36293 11.3301 6.0074 11.3301 6.66667C11.329 7.5504 10.9775 8.39763 10.3526 9.02252C9.72771 9.64741 8.88048 9.99894 7.99675 10Z" fill="black"/>
<path d="M8 8.6665C9.10457 8.6665 10 7.77107 10 6.6665C10 5.56193 9.10457 4.6665 8 4.6665C6.89543 4.6665 6 5.56193 6 6.6665C6 7.77107 6.89543 8.6665 8 8.6665Z" fill="black"/>
</svg>
