<svg width="16" height="16" viewBox="0 0 16 16" fill="none" xmlns="http://www.w3.org/2000/svg">
<path d="M4.2925 2.25119C4.46184 2.10599 4.68635 2.0177 4.9252 2.00239C5.16405 1.98708 5.40138 2.04575 5.59403 2.16774L5.70605 2.25119L11.707 7.39535C11.8764 7.54052 11.9793 7.73297 11.9972 7.93772C12.0151 8.14247 11.9466 8.34591 11.8043 8.51106L11.707 8.60709L5.70605 13.7512C5.52736 13.9032 5.28837 13.9919 5.0368 13.9995C4.78523 14.0071 4.53956 13.9331 4.34884 13.7922C4.15812 13.6514 4.03636 13.4541 4.00787 13.2397C3.97938 13.0253 4.04626 12.8095 4.19515 12.6355L4.2925 12.5395L9.58665 8.00122L4.2925 3.46292C4.1052 3.30217 4 3.08426 4 2.85705C4 2.62985 4.1052 2.41194 4.2925 2.25119Z" fill="black"/>
</svg>
