<svg width="16" height="16" viewBox="0 0 16 16" fill="none" xmlns="http://www.w3.org/2000/svg">
<g clip-path="url(#clip0_10_2799)">
<path d="M1.07219 12C1.62363 12.9571 2.84653 13.2859 3.8036 12.7344C3.80425 12.7341 3.80488 12.7337 3.80553 12.7333L4.10219 12.562C4.66219 13.0411 5.30588 13.4127 6.00085 13.658V14C6.00085 15.1046 6.89628 16 8.00085 16C9.10541 16 10.0008 15.1046 10.0008 14V13.658C10.6959 13.4123 11.3396 13.0403 11.8995 12.5607L12.1975 12.7327C13.1548 13.2849 14.3786 12.9566 14.9308 11.9993C15.4831 11.042 15.1548 9.81825 14.1975 9.26597L13.9015 9.09531C14.0348 8.37028 14.0348 7.62703 13.9015 6.90197L14.1975 6.73131C15.1548 6.17903 15.4831 4.95528 14.9308 3.99797C14.3786 3.04069 13.1548 2.71234 12.1975 3.26463L11.9008 3.43597C11.3403 2.95744 10.6962 2.58656 10.0008 2.342V2C10.0008 0.895437 9.10541 0 8.00085 0C6.89628 0 6.00085 0.895437 6.00085 2V2.342C5.30578 2.58772 4.66207 2.95972 4.10219 3.43934L3.80419 3.26669C2.84688 2.71438 1.62313 3.04272 1.07085 4C0.518565 4.95728 0.846878 6.18106 1.80419 6.73334L2.10019 6.904C1.96694 7.62903 1.96694 8.37228 2.10019 9.09734L1.80419 9.268C0.849534 9.82175 0.522284 11.0431 1.07219 12ZM8.00085 5.33334C9.4736 5.33334 10.6675 6.52725 10.6675 8C10.6675 9.47275 9.4736 10.6667 8.00085 10.6667C6.5281 10.6667 5.33419 9.47275 5.33419 8C5.33419 6.52725 6.5281 5.33334 8.00085 5.33334Z" fill="black"/>
</g>
<defs>
<clipPath id="clip0_10_2799">
<rect width="16" height="16" fill="white"/>
</clipPath>
</defs>
</svg>
