<svg width="16" height="16" viewBox="0 0 16 16" fill="none" xmlns="http://www.w3.org/2000/svg">
<g clip-path="url(#clip0_10_2802)">
<path d="M14.8282 6.68071H1.1709L6.7709 0.558706C6.93103 0.394465 7.12248 0.264021 7.33392 0.175099C7.54537 0.0861768 7.7725 0.0405836 8.00189 0.0410187C8.23127 0.0414539 8.45823 0.0879086 8.66933 0.177632C8.88044 0.267356 9.0714 0.398525 9.2309 0.563373L14.8282 6.68071Z" fill="black"/>
<path d="M7.99957 16.0075C7.76698 16.0073 7.53703 15.9581 7.32467 15.8632C7.11231 15.7684 6.92227 15.6299 6.7669 15.4568L1.1709 9.34082H14.8282L9.22823 15.4615C9.07321 15.6336 8.88369 15.7712 8.67201 15.8653C8.46032 15.9593 8.23121 16.0078 7.99957 16.0075Z" fill="black"/>
</g>
<defs>
<clipPath id="clip0_10_2802">
<rect width="16" height="16" fill="white"/>
</clipPath>
</defs>
</svg>
