<svg width="16" height="16" viewBox="0 0 16 16" fill="none" xmlns="http://www.w3.org/2000/svg">
<path d="M13.9997 2.66666H11.933C11.614 1.11572 10.2497 0.002 8.66632 0H7.33298C5.74957 0.002 4.38526 1.11572 4.06632 2.66666H1.99966C1.63148 2.66666 1.33301 2.96513 1.33301 3.33331C1.33301 3.7015 1.63148 4 1.99966 4H2.66632V12.6667C2.66854 14.5067 4.15963 15.9978 5.99966 16H9.99966C11.8397 15.9978 13.3308 14.5067 13.333 12.6667V4H13.9997C14.3679 4 14.6663 3.70153 14.6663 3.33334C14.6663 2.96516 14.3679 2.66666 13.9997 2.66666ZM7.33301 11.3333C7.33301 11.7015 7.03454 12 6.66635 12C6.29813 12 5.99966 11.7015 5.99966 11.3333V7.33334C5.99966 6.96516 6.29813 6.66669 6.66632 6.66669C7.03451 6.66669 7.33298 6.96516 7.33298 7.33334V11.3333H7.33301ZM9.99966 11.3333C9.99966 11.7015 9.7012 12 9.33301 12C8.96482 12 8.66635 11.7015 8.66635 11.3333V7.33334C8.66635 6.96516 8.96482 6.66669 9.33301 6.66669C9.7012 6.66669 9.99966 6.96516 9.99966 7.33334V11.3333ZM5.44701 2.66666C5.73057 1.86819 6.4857 1.33434 7.33301 1.33331H8.66635C9.51367 1.33434 10.2688 1.86819 10.5524 2.66666H5.44701Z" fill="black"/>
</svg>
