<svg width="16" height="16" viewBox="0 0 16 16" fill="none" xmlns="http://www.w3.org/2000/svg">
<path d="M8.58865 1.68784C8.35799 1.25184 7.64066 1.25184 7.40999 1.68784L1.40999 13.0212C1.35598 13.1228 1.3292 13.2366 1.33227 13.3516C1.33534 13.4666 1.36814 13.5789 1.42749 13.6774C1.48684 13.776 1.57071 13.8575 1.67092 13.914C1.77113 13.9705 1.88428 14.0001 1.99932 13.9998H13.9993C14.1143 14.0001 14.2274 13.9705 14.3275 13.914C14.4276 13.8576 14.5114 13.7761 14.5707 13.6776C14.63 13.5791 14.6628 13.4669 14.6658 13.352C14.6688 13.2371 14.642 13.1233 14.588 13.0218L8.58865 1.68784ZM8.66599 11.9998H7.33265V10.6665H8.66599V11.9998ZM7.33265 9.33317V5.99984H8.66599L8.66666 9.33317H7.33265Z" fill="black"/>
</svg>
